<?xml version="1.0" encoding="utf-8"?>
<!-- Generator: Adobe Illustrator 24.1.1, SVG Export Plug-In . SVG Version: 6.00 Build 0)  -->
<svg version="1.1" id="Layer_2" xmlns="http://www.w3.org/2000/svg" xmlns:xlink="http://www.w3.org/1999/xlink" x="0px" y="0px"
	 viewBox="0 0 141.67 139.54" style="enable-background:new 0 0 141.67 139.54;" xml:space="preserve">
<g>
	<path d="M71.83,21.46V1c0-0.55-0.45-1-1-1c-0.55,0-1,0.45-1,1v20.46c0.33-0.01,0.67-0.03,1-0.03
		C71.17,21.44,71.5,21.46,71.83,21.46z"/>
	<path d="M45.77,28.44c0.57-0.35,1.15-0.67,1.73-1L37.26,9.74c-0.28-0.48-0.89-0.64-1.37-0.36c-0.48,0.28-0.64,0.89-0.36,1.37
		L45.77,28.44z"/>
	<path d="M10.5,34.73c-0.28,0.48-0.12,1.09,0.36,1.37l17.68,10.27c0.32-0.58,0.65-1.16,1-1.73L11.87,34.36
		C11.39,34.09,10.78,34.25,10.5,34.73z"/>
	<path d="M106.41,8.52c-0.48-0.28-1.09-0.12-1.37,0.36l-10.8,18.6c0.58,0.32,1.16,0.65,1.73,1l10.8-18.6
		C107.05,9.41,106.89,8.8,106.41,8.52z"/>
	<path d="M131.78,35.67c0.48-0.28,0.64-0.89,0.36-1.37c-0.28-0.48-0.89-0.64-1.37-0.36l-18.61,10.77c0.35,0.57,0.67,1.15,1,1.73
		L131.78,35.67z"/>
	<path d="M22.5,69.77c0-0.33,0.02-0.67,0.03-1H1c-0.55,0-1,0.45-1,1c0,0.55,0.45,1,1,1h21.53C22.52,70.44,22.5,70.11,22.5,69.77z"/>
	<path d="M140.67,68.77h-21.53c0.01,0.33,0.03,0.67,0.03,1s-0.02,0.67-0.03,1h21.53c0.55,0,1-0.45,1-1
		C141.67,69.22,141.22,68.77,140.67,68.77z"/>
	<path d="M130.8,103.45l-17.68-10.27c-0.32,0.58-0.65,1.16-1,1.73l17.68,10.27c0.16,0.09,0.33,0.14,0.5,0.14
		c0.34,0,0.68-0.18,0.87-0.5C131.44,104.34,131.28,103.73,130.8,103.45z"/>
	<path d="M9.88,103.87c-0.48,0.28-0.64,0.89-0.36,1.37c0.18,0.32,0.52,0.5,0.87,0.5c0.17,0,0.34-0.04,0.5-0.13L29.5,94.84
		c-0.35-0.57-0.67-1.15-1-1.73L9.88,103.87z"/>
	<path d="M95.9,111.1c-0.57,0.35-1.15,0.67-1.73,1l10.24,17.7c0.18,0.32,0.52,0.5,0.87,0.5c0.17,0,0.34-0.04,0.5-0.13
		c0.48-0.28,0.64-0.89,0.36-1.37L95.9,111.1z"/>
	<path d="M34.89,129.65c-0.28,0.48-0.12,1.09,0.36,1.37c0.16,0.09,0.33,0.14,0.5,0.14c0.34,0,0.68-0.18,0.87-0.5l10.8-18.6
		c-0.58-0.32-1.16-0.65-1.73-1L34.89,129.65z"/>
	<path d="M69.83,118.08v20.46c0,0.55,0.45,1,1,1c0.55,0,1-0.45,1-1v-20.46c-0.33,0.01-0.67,0.03-1,0.03
		C70.5,118.1,70.17,118.08,69.83,118.08z"/>
	<path d="M104.74,51.89c0.72-0.42,0.96-1.33,0.55-2.05c-0.42-0.72-1.33-0.96-2.05-0.55L74.81,65.74l0,0
		c-1.02-1.01-2.43-1.63-3.98-1.63c-1.55,0-2.95,0.62-3.97,1.63L46.52,53.91c-0.72-0.42-1.63-0.17-2.05,0.54
		c-0.42,0.72-0.17,1.63,0.54,2.05l20.35,11.82c-0.12,0.46-0.19,0.94-0.19,1.44c0,3.13,2.54,5.67,5.67,5.67
		c3.13,0,5.67-2.54,5.67-5.67c0-0.5-0.07-0.98-0.19-1.43L104.74,51.89z M75.34,66.35c-0.02-0.03-0.04-0.05-0.06-0.08
		C75.31,66.3,75.32,66.32,75.34,66.35z M75.74,66.94c-0.01-0.01-0.01-0.02-0.02-0.04C75.72,66.91,75.73,66.93,75.74,66.94z
		 M65.96,66.89c-0.01,0.01-0.01,0.02-0.02,0.04C65.94,66.92,65.95,66.91,65.96,66.89z M66.38,66.27c-0.02,0.02-0.03,0.04-0.05,0.07
		C66.35,66.31,66.37,66.29,66.38,66.27z M70.83,72.44c-1.47,0-2.67-1.2-2.67-2.67s1.2-2.67,2.67-2.67c1.47,0,2.67,1.2,2.67,2.67
		S72.3,72.44,70.83,72.44z"/>
</g>
</svg>
