<svg xmlns="http://www.w3.org/2000/svg" viewBox="0 0 94.16 91.99"><path d="M47.08 8.17c5.03 0 9.11 4.08 9.11 9.11 0 5.03-4.08 9.11-9.11 9.11-5.03 0-9.11-4.08-9.11-9.11.01-5.03 4.08-9.11 9.11-9.11z"/><path d="M67.46 26.38H26.71a2.83 2.83 0 00-2.82 2.82v4.47a2.83 2.83 0 002.82 2.82h.83v45.39h-.83a2.83 2.83 0 00-2.82 2.82v4.47a2.83 2.83 0 002.82 2.82h40.75a2.83 2.83 0 002.82-2.82V84.7a2.83 2.83 0 00-2.82-2.82h-.83V36.49h.83a2.83 2.83 0 002.82-2.82V29.2a2.83 2.83 0 00-2.82-2.82zm-33.8 10.11h13.2l-13.2 13.2v-13.2zM60.5 81.88H47.03L60.5 68.41v13.47zm0-28.71L33.66 80.01V64.93L60.5 38.09v15.08z"/><path d="M47.08 0C21.08 0 0 21.08 0 47.08 0 62.51 7.42 76.2 18.89 84.79v-.09c0-1.5.44-2.9 1.18-4.1C10.28 72.7 4 60.61 4 47.08 4 23.33 23.33 4 47.08 4s43.08 19.33 43.08 43.08c0 13.53-6.28 25.62-16.06 33.52a7.735 7.735 0 011.18 4.1v.09c11.47-8.59 18.89-22.28 18.89-37.71C94.16 21.08 73.08 0 47.08 0z"/></svg>