<svg xmlns="http://www.w3.org/2000/svg" viewBox="0 0 94.94 94.16"><path d="M90.28 28.39c-2.1-4.84-4.99-9.26-8.51-13.1-.65 1.26-1.31 2.52-1.98 3.78 2.58 3.01 4.75 6.37 6.42 10.01 1.35-.24 2.71-.46 4.07-.69zm-.27 15.17c.09 1.16.16 2.33.16 3.52 0 23.79-19.29 43.08-43.08 43.08-.79 0-1.57-.02-2.34-.07.13.57.23 1.18.22 1.84-.01.76-.16 1.48-.4 2.15.84.04 1.68.07 2.53.07 25.96 0 47.08-21.12 47.08-47.08 0-2.09-.15-4.14-.42-6.16-1.2.97-2.45 1.84-3.75 2.65zM4 47.08C4 23.29 23.29 4 47.08 4c7.86 0 15.22 2.12 21.57 5.79 1.08-.86 2.21-1.74 3.36-2.62A46.739 46.739 0 0047.08 0C21.12 0 0 21.12 0 47.08 0 66.89 12.3 83.86 29.66 90.8c-.4-1.5-.56-3.07-.57-4.58C14.28 79.41 4 64.45 4 47.08z"/><path d="M38.77 84.91c7.74-2.72 16.31-9.66 14.54-19.83-.9-5.14-4.48-5-7.27-9.25 14.44-12 24.21-28.66 33.04-46.26H77.1C69.65 15.23 55.19 26.55 48.68 36c-2.6 3.78-4.59 9.31-7.27 13.88-4.54 7.75-15.12 21.23-6.61 31.06-1.38 4.62-1.2 12.39 3.96 12.56 3.28-1.73-1.38-4.61.01-8.59zm8.31-38.83a2.58 2.58 0 110 5.16 2.58 2.58 0 010-5.16zM36.79 74.99c-1.86-9 7.01-16.95 11.9-9.25.25 7.42-6.19 15.77-11.9 9.25z"/><path d="M55.95 51.2c13.96-5.2 30.58-7.75 38.99-18.5-9.41 1.38-18.12 3.47-27.76 4.63-2.13 6.23-7.02 9.71-11.23 13.87zM12.33 39.97c-4.22 12.25 8.42 15.99 21.81 13.88 3.78-4.81 5.85-9.96 1.98-15.86-4.89-7.47-20.9-6.38-23.79 1.98zm5.29 7.27C12.5 36.4 30.51 36.17 32.16 41.95c2.18 7.63-9.1 8.03-14.54 5.29z"/></svg>