<svg xmlns="http://www.w3.org/2000/svg" viewBox="0 0 94.16 88.62"><path d="M87.19 22.42c-.57 1.73-1.13 3.48-1.68 5.22a42.748 42.748 0 014.65 19.44c0 14.24-6.95 26.88-17.63 34.73 1.16.71 2.22 1.58 3.14 2.67 11.24-8.6 18.49-22.15 18.49-37.4 0-9.04-2.55-17.48-6.97-24.66zM9.52 70.34c.45 0 .9.01 1.34.02A42.85 42.85 0 014 47.08C4 23.33 23.33 4 47.08 4c6.78 0 13.2 1.58 18.91 4.38.72-1.16 1.53-2.25 2.44-3.26A46.834 46.834 0 0047.08 0C21.08 0 0 21.08 0 47.08c0 8.52 2.27 16.51 6.23 23.4 1.13-.11 2.25-.14 3.29-.14z"/><path d="M53.45 82.04c.44-6.14-.87-14.02.66-19.07 4.53-.08 9.56.35 13.15-.66 8.17-14.84 12.03-34.01 18.42-50.64V9.04c-.67-3.05-3.75-3.7-6.58-4.6h-.66c-10.6 3.43-11.96 16.1-14.47 27.62-15.79-4.14-32.29-.06-32.88 15.13-4.53.08-7.98 1.22-9.86 3.95-.57 6.71 1.57 10.71 6.58 11.84-1.24 5.34-3.64 9.51-7.23 12.49-6.4.61-15.64-1.6-19.07 1.98v2.63c3.15 3.86 12.85 1.18 19.07 1.97 6.59-3.93 8.46-12.59 11.84-19.73 4.67.37 10.86-.78 14.47.66v19.73c-7.83.5-15.45 1.21-19.07 5.92h44.72c-3.27-5.3-12.49-4.64-19.09-6.59zM37.67 47.19c.68-11.7 15.37-11.69 25.65-8.55.1 4.72-.52 10.16 1.31 13.15-7.04-.85-17.07-4.4-26.96-4.6z"/></svg>