<svg xmlns="http://www.w3.org/2000/svg" viewBox="28.5 48.84 57 97.68"><path d="M79.62 64.08c-.4-5.45-.61-10.85-2.52-15.24-.76 0-1.53 7.31-2.28 10.92-1.48 7.14-3.71 8.28-4.44 8.28-.86-3.86-4.38-4.24-7.8-5.88-1.21-.58-2.31-1.05-3.6-1.2-.67-.08-1.29.1-1.98.12-.69-.02-1.31-.19-1.98-.12-1.29.15-2.39.62-3.6 1.2-3.42 1.64-6.94 2.02-7.8 5.88-.72 0-2.96-1.14-4.44-8.28-.75-3.61-1.51-10.92-2.28-10.92-1.91 4.39-2.13 9.79-2.52 15.24-.88 23.54-5.88 36.29-5.88 47.16 0 26.07 11.71 35.28 28.5 35.28s28.5-9.21 28.5-35.28c0-10.87-5-23.62-5.88-47.16zM62.94 73.8c-2.79 1.17-5.35-.71-5.88-.72-.02 0-.04.01-.06.01-.02 0-.04-.01-.06-.01-.53.01-3.09 1.89-5.88.72-.79-3.58 2.4-4.04 5.94-3.9 3.54-.14 6.72.32 5.94 3.9z"/></svg>