<svg xmlns="http://www.w3.org/2000/svg" viewBox="31.2 39.24 62.4 78.49"><path d="M93.6 81.24c0-5.21-2.37-7.78-3.6-9.96-.91-1.61-3.98-10.75-4.2-17.64-.07-4.91-1.69-12.45-2.88-14.4-.86 0-1.52 7.78-2.28 11.64-1.43 7.04-3.77 8.93-4.44 9-.76-2.81-4.11-7.36-13.68-7.72a.647.647 0 00-.13-.04c-.04.01-.08.03-.13.04-9.56.36-12.92 4.92-13.67 7.72-.67-.07-3.01-1.96-4.44-9-.76-3.86-1.42-11.64-2.28-11.64-1.19 1.95-2.81 9.49-2.88 14.4-.23 6.89-3.29 16.03-4.2 17.64-1.23 2.19-3.6 4.75-3.6 9.96 0 3.74 5.2 7.2 5.64 11.4.13 1.22-.03 2.35.12 3.36 2 17.48 17.87 21.73 25.44 21.73S85.83 113.49 87.83 96c.15-1.01 0-2.14.12-3.36.45-4.19 5.65-7.65 5.65-11.4zM64.44 66c-.69-.13-3.39-.13-4.08 0-1.73.34-5.76.99-5.76-1.08 0-1.07 6.72-2.29 7.8-2.29s7.8 1.23 7.8 2.29c0 2.07-4.03 1.42-5.76 1.08z"/></svg>