<svg xmlns="http://www.w3.org/2000/svg" viewBox="25.76 24.79 51.48 49.48"><path d="M76.64 24.79h-.24c-2.31 7.69-2.93 17.07-9.36 20.64-1.19-3.35-4.11-4.89-7.44-6.36-2.12-.93-4.55-2.56-6.6-2.64-.5-.02-1.05-.03-1.5.32-.45-.35-1-.33-1.5-.32-2.05.08-4.48 1.71-6.6 2.64-3.33 1.47-6.25 3-7.44 6.36-6.43-3.57-7.05-12.95-9.36-20.64h-.24c-.32.68-.4 1.6-.6 2.4 0 1.92.54 21.46 1.92 28.44 1.24 6.29 6.08 10.83 10.8 13.8 3.29 2.07 8.51 4.84 13.02 4.84s9.73-2.77 13.02-4.84c4.72-2.97 9.56-7.51 10.8-13.8 1.38-6.98 1.92-26.52 1.92-28.44-.2-.8-.29-1.72-.6-2.4zM62.71 52.84c-.25 1.55-1.66 3.39-3.36 3.48-2.98.17-4.51-4.42-7.86-4.38-3.35-.04-4.88 4.55-7.86 4.38-1.7-.1-3.12-1.93-3.36-3.48-.31-1.94.61-4.61 1.68-5.64 1.1-1.07 2.82-.93 4.68-1.2 2.04-.29 3.8-.88 4.86-1.95 0-.04 0-.04 0 0 1.06 1.07 2.82 1.65 4.86 1.95 1.86.27 3.58.13 4.68 1.2 1.07 1.04 1.99 3.7 1.68 5.64z"/></svg>