<svg xmlns="http://www.w3.org/2000/svg" viewBox="0 0 141.67 139.54"><path d="M71.83 21.46V1c0-.55-.45-1-1-1s-1 .45-1 1v20.46c.33-.01.67-.03 1-.03.34.01.67.03 1 .03zm-26.06 6.98c.57-.35 1.15-.67 1.73-1L37.26 9.74a.998.998 0 00-1.37-.36c-.48.28-.64.89-.36 1.37l10.24 17.69zM10.5 34.73a.998.998 0 00.36 1.37l17.68 10.27c.32-.58.65-1.16 1-1.73L11.87 34.36a1.01 1.01 0 00-1.37.37zm95.91-26.21a.998.998 0 00-1.37.36l-10.8 18.6c.58.32 1.16.65 1.73 1l10.8-18.6a.99.99 0 00-.36-1.36zm25.37 27.15c.48-.28.64-.89.36-1.37a.998.998 0 00-1.37-.36l-18.61 10.77c.35.57.67 1.15 1 1.73l18.62-10.77zM22.5 69.77c0-.33.02-.67.03-1H1c-.55 0-1 .45-1 1s.45 1 1 1h21.53c-.01-.33-.03-.66-.03-1zm118.17-1h-21.53c.01.33.03.67.03 1s-.02.67-.03 1h21.53c.55 0 1-.45 1-1s-.45-1-1-1zm-9.87 34.68l-17.68-10.27c-.32.58-.65 1.16-1 1.73l17.68 10.27c.16.09.33.14.5.14.34 0 .68-.18.87-.5.27-.48.11-1.09-.37-1.37zm-120.92.42c-.48.28-.64.89-.36 1.37.18.32.52.5.87.5.17 0 .34-.04.5-.13L29.5 94.84c-.35-.57-.67-1.15-1-1.73L9.88 103.87zm86.02 7.23c-.57.35-1.15.67-1.73 1l10.24 17.7c.18.32.52.5.87.5.17 0 .34-.04.5-.13.48-.28.64-.89.36-1.37L95.9 111.1zm-61.01 18.55a.998.998 0 00.36 1.37c.16.09.33.14.5.14.34 0 .68-.18.87-.5l10.8-18.6c-.58-.32-1.16-.65-1.73-1l-10.8 18.59zm34.94-11.57v20.46c0 .55.45 1 1 1s1-.45 1-1v-20.46c-.33.01-.67.03-1 .03-.33-.01-.66-.03-1-.03zm34.91-66.19c.72-.42.96-1.33.55-2.05-.42-.72-1.33-.96-2.05-.55L74.81 65.74a5.641 5.641 0 00-3.98-1.63c-1.55 0-2.95.62-3.97 1.63L46.52 53.91a1.5 1.5 0 00-2.05.54 1.5 1.5 0 00.54 2.05l20.35 11.82c-.12.46-.19.94-.19 1.44 0 3.13 2.54 5.67 5.67 5.67s5.67-2.54 5.67-5.67c0-.5-.07-.98-.19-1.43l28.42-16.44zm-29.4 14.46c-.02-.03-.04-.05-.06-.08.03.03.04.05.06.08zm.4.59c-.01-.01-.01-.02-.02-.04 0 .01.01.03.02.04zm-9.78-.05c-.01.01-.01.02-.02.04 0-.01.01-.02.02-.04zm.42-.62c-.02.02-.03.04-.05.07.02-.03.04-.05.05-.07zm4.45 6.17c-1.47 0-2.67-1.2-2.67-2.67s1.2-2.67 2.67-2.67 2.67 1.2 2.67 2.67-1.2 2.67-2.67 2.67z"/></svg>