<svg xmlns="http://www.w3.org/2000/svg" viewBox="0 0 22.07 21.21"><path d="M21.81 0h-.1c-.99 3.3-1.25 7.32-4.01 8.85-.51-1.44-1.76-2.1-3.19-2.73-.91-.4-1.95-1.1-2.83-1.13-.21-.01-.45-.01-.64.13-.19-.15-.43-.14-.64-.13-.89.04-1.93.73-2.84 1.13-1.43.63-2.68 1.29-3.19 2.73C1.61 7.32 1.35 3.3.36 0h-.1C.12.29.09.69 0 1.03c0 .82.23 9.2.82 12.19.53 2.7 2.61 4.64 4.63 5.92 1.41.89 3.65 2.07 5.58 2.07 1.93 0 4.17-1.19 5.58-2.07 2.03-1.27 4.1-3.22 4.63-5.92.59-2.99.82-11.37.82-12.19-.08-.34-.11-.74-.25-1.03zm-5.97 12.03c-.1.67-.71 1.45-1.44 1.49-1.28.07-1.93-1.89-3.37-1.88-1.44-.01-2.09 1.95-3.37 1.88-.73-.04-1.34-.83-1.44-1.49-.13-.83.26-1.98.72-2.42.47-.46 1.21-.4 2-.51.87-.13 1.63-.38 2.08-.84 0-.02 0-.02 0 0 .46.46 1.21.71 2.08.84.8.12 1.53.06 2.01.51.47.44.86 1.58.73 2.42z" fill="#010101"/></svg>